<?xml version="1.0" encoding="UTF-8"?>
<svg width="20px" height="20px" viewBox="0 0 20 20" version="1.1" xmlns="http://www.w3.org/2000/svg" xmlns:xlink="http://www.w3.org/1999/xlink">
    <!-- Generator: Sketch 59 (86127) - https://sketch.com -->
    <title>Shape</title>
    <desc>Created with Sketch.</desc>
    <g id="雷射雕刻" stroke="none" stroke-width="1" fill="none" fill-rule="evenodd">
        <g id="ipad" transform="translate(-865.000000, -856.000000)" fill="#CC9955" fill-rule="nonzero">
            <g id="Group" transform="translate(865.000000, 856.000000)">
                <path d="M10,0 C4.48,0 0,4.48 0,10 C0,15.52 4.48,20 10,20 C15.52,20 20,15.52 20,10 C20,4.48 15.52,0 10,0 Z M10,18 C5.59,18 2,14.41 2,10 C2,5.59 5.59,2 10,2 C14.41,2 18,5.59 18,10 C18,14.41 14.41,18 10,18 Z M7,14 L13,14 L13,12 L7,12 L7,14 Z M4,10 L16,10 L16,8 L4,8 L4,10 Z" id="Shape"></path>
            </g>
        </g>
    </g>
</svg>