<?xml version="1.0" encoding="UTF-8"?>
<svg width="24px" height="24px" viewBox="0 0 24 24" version="1.1" xmlns="http://www.w3.org/2000/svg" xmlns:xlink="http://www.w3.org/1999/xlink">
    <!-- Generator: Sketch 59 (86127) - https://sketch.com -->
    <title>Shape</title>
    <desc>Created with Sketch.</desc>
    <g id="雷射雕刻" stroke="none" stroke-width="1" fill="none" fill-rule="evenodd">
        <g id="ipad" transform="translate(-865.000000, -856.000000)" fill="#CC9955" fill-rule="nonzero">
            <g id="Group" transform="translate(865.000000, 856.000000)">
                <path d="M12,0 C5.376,0 0,5.376 0,12 C0,18.624 5.376,24 12,24 C18.624,24 24,18.624 24,12 C24,5.376 18.624,0 12,0 Z M12,21.6 C6.708,21.6 2.4,17.292 2.4,12 C2.4,6.708 6.708,2.4 12,2.4 C17.292,2.4 21.6,6.708 21.6,12 C21.6,17.292 17.292,21.6 12,21.6 Z M8.4,16.8 L15.6,16.8 L15.6,14.4 L8.4,14.4 L8.4,16.8 Z M4.8,12 L19.2,12 L19.2,9.6 L4.8,9.6 L4.8,12 Z" id="Shape"></path>
            </g>
        </g>
    </g>
</svg>