<?xml version="1.0" encoding="UTF-8"?>
<svg width="36px" height="23px" viewBox="0 0 36 23" version="1.1" xmlns="http://www.w3.org/2000/svg" xmlns:xlink="http://www.w3.org/1999/xlink">
    <!-- Generator: Sketch 64 (93537) - https://sketch.com -->
    <title>airpods_pro_dark__fq982ukhrn2a_large</title>
    <desc>Created with Sketch.</desc>
    <g id="Page-1" stroke="none" stroke-width="1" fill="none" fill-rule="evenodd">
        <g id="airpods_pro_dark__fq982ukhrn2a_large" fill="#333333" fill-rule="nonzero">
            <path d="M8.5,14 L8.5,21.67 C8.54594343,22.3551668 9.06992569,22.9122383 9.751,23 L11.181,23 C11.9500497,22.9073327 12.5220551,22.2443264 12.501,21.47 L12.501,13 C11.2302245,13.5136609 9.87165349,13.7751858 8.501,13.77 L8.5,14 Z M12.23,3.10981709e-15 C10.6371789,-0.021999086 9.07278976,0.422982716 7.73,1.28 C6.43282286,1.99901066 5.29355382,2.97164034 4.38,4.14 C5.14485748,4.33262011 5.86491205,4.6722685 6.5,5.14 C7.18840632,5.60698447 7.77099515,6.21342197 8.21,6.92 C8.85982827,7.80399351 9.28223736,8.83425958 9.44,9.92 C9.55399009,10.5145859 9.55399009,11.1254141 9.44,11.72 C9.40145215,11.9626136 9.33777629,12.2005602 9.25,12.43 C10.4062699,12.3350896 11.5420121,12.0688474 12.62,11.64 L12.9,11.48 C13.7610155,10.9479853 14.5593795,10.3206993 15.28,9.61 L15.38,9.49 C16.2923168,8.57304644 16.8578683,7.36771491 16.98,6.08 C17.0512583,4.65598373 16.6466745,3.24873559 15.83,2.08 C14.27,0.2 12.95,3.10981709e-15 12.24,3.10981709e-15 L12.23,3.10981709e-15 Z M14.5,4.24 L12.34,5.8 C11.9527676,6.08465135 11.4081534,6.00186282 11.123,5.615 L11.123,5.61 C10.8418118,5.19588575 10.9243556,4.63545673 11.313,4.32 L13.433,2.75 C13.8385066,2.48682671 14.3802075,2.59819614 14.649,3 C14.9463637,3.38464822 14.8800228,3.93674741 14.5,4.24 L14.5,4.24 Z M8.6,10.24 C8.40486135,9.14379386 7.94102906,8.11305545 7.25,7.24 C6.88606721,6.65662028 6.41834838,6.14484097 5.87,5.73 C5.41616661,5.38832469 4.88268567,5.16804869 4.32,5.09 C3.88357088,5.01766795 3.43553378,5.07323844 3.03,5.25 C2.0522708,5.70733611 1.27676179,6.50811411 0.851,7.5 C0.652798996,7.97745396 0.534226061,8.4841759 0.5,9 C0.481089171,9.40431367 0.524942778,9.8091162 0.63,10.2 C0.681332898,10.3840002 0.744805355,10.5643956 0.82,10.74 C1.00158937,11.1545124 1.22972128,11.5470335 1.5,11.91 C1.8262704,12.397079 2.22795791,12.8291462 2.69,13.19 C3.49525851,13.7962264 4.49561103,14.0845842 5.5,14 C6.05421675,13.9771615 6.59680174,13.8338371 7.09,13.58 C7.56744953,13.3816967 7.96510469,13.0297895 8.22,12.58 C8.61708204,11.8759535 8.75172268,11.053937 8.6,10.26 L8.6,10.24 Z M3.93,12.44 C3.20697893,12.2761778 2.58421646,11.8199681 2.21,11.18 C1.76878558,10.6128698 1.57418531,9.89212807 1.67,9.18 C1.81,8.72 2.34,8.73 2.67,9.18 L4.31,11.44 C4.561,11.91 4.371,12.48 3.931,12.44 L3.93,12.44 Z M27.5,14 L27.5,13.76 C26.1299855,13.7685929 24.7713944,13.5104605 23.5,13 L23.5,21.47 C23.4789975,22.2446669 24.0515519,22.9078071 24.821,23 L26.251,23 C26.9244255,22.9126871 27.4453325,22.3667766 27.501,21.69 L27.5,14 Z M26.5,11.75 C26.3920097,11.1716646 26.3920097,10.5783354 26.5,10 C26.6572838,8.91412883 27.0797389,7.88375051 27.73,7 C28.1768511,6.25799932 28.7810553,5.62307293 29.5,5.14 C30.135088,4.6722685 30.8551425,4.33262011 31.62,4.14 C30.706209,2.97186755 29.5669899,1.99928053 28.27,1.28 C26.9246409,0.421288356 25.3568735,-0.023764279 23.761,1.39888101e-14 C23.041,1.39888101e-14 21.761,0.19 20.151,2.08 C19.3339077,3.24853634 18.9292819,4.65593067 19.001,6.08 C19.1227247,7.36782604 19.6883376,8.57328844 20.601,9.49 L20.701,9.61 C21.4212082,10.3211671 22.2196275,10.9484965 23.081,11.48 L23.361,11.64 C24.4389523,12.0689608 25.5747116,12.3352071 26.731,12.43 C26.6319419,12.2149917 26.5548832,11.9905161 26.501,11.76 L26.5,11.75 Z M24.89,5.6 C24.7546099,5.7868489 24.550538,5.91225963 24.3226799,5.94864191 C24.0948218,5.98502419 23.8618434,5.92939762 23.675,5.794 L21.5,4.24 C21.1159274,3.94032073 21.0445771,3.38735611 21.34,3 C21.6074604,2.59741796 22.1486644,2.48427738 22.555,2.746 L24.675,4.316 C25.0790213,4.59064279 25.1861386,5.13961869 24.915,5.546 L24.89,5.6 Z M35.12,7.54 C34.6944958,6.56494132 33.9309302,5.77651547 32.97,5.32 C32.5644358,5.14334969 32.1164315,5.08778326 31.68,5.16 C31.1172094,5.2376613 30.5836344,5.45797612 30.13,5.8 C29.5811914,6.21433568 29.1133882,6.72620728 28.75,7.31 C28.0581798,8.18257432 27.5942539,9.21352085 27.4,10.31 C27.2401896,11.1015353 27.3678315,11.9241166 27.76,12.63 C28.014351,13.0802302 28.4121792,13.4322906 28.89,13.63 C29.3930407,13.8699047 29.942694,13.9962225 30.5,14 C31.4997813,14.0849355 32.4960007,13.8003014 33.3,13.2 C33.7660891,12.8365873 34.1711848,12.4011094 34.5,11.91 C34.7661787,11.5461492 34.9909039,11.1537186 35.17,10.74 C35.244314,10.5640538 35.3077665,10.3837152 35.36,10.2 C35.4679241,9.80954539 35.5151429,9.40481243 35.5,9 C35.455165,8.49562942 35.3267458,8.00222942 35.12,7.54 L35.12,7.54 Z M33.79,11.22 C33.403494,11.86162 32.7710815,12.316957 32.04,12.48 C31.6,12.48 31.41,11.95 31.7,11.48 L33.34,9.22 C33.63,8.74 34.16,8.73 34.34,9.22 C34.4319753,9.93342578 34.2338386,10.653923 33.79,11.22 L33.79,11.22 Z" id="Shape"></path>
        </g>
    </g>
</svg>