<?xml version="1.0" encoding="utf-8"?>
<!--Generator: Adobe Illustrator 21.1.0, SVG Export Plug-In . SVG Version: 6.00 Build 0)-->
<svg xmlns="http://www.w3.org/2000/svg" xmlns:xlink="http://www.w3.org/1999/xlink" id="Final_OL" width="258px" height="43px" x="0px" y="0px" style="enable-background:new 0 0 258 43" version="1.1" viewBox="0 0 479 80" xml:space="preserve">
    <style type="text/css">
        .st0{fill:#FFFFFF;}
    </style>
    <g>
        <g>
            <g>
                <path d="M 1.4 10.3 c 0 -3.5 2.8 -6.3 6.3 -6.3 c 3.5 0 6.4 2.7 6.4 6.3 c 0 3.4 -2.8 6.2 -6.4 6.2 C 4.2 16.6 1.4 13.8 1.4 10.3 z M 2.2 24.4 h 10.9 v 53.3 H 2.2 V 24.4 z" class="st0"/>
                <path d="M 53.2 4.6 c 14.2 0 24 9.8 24 24 c 0 14.3 -10.1 24.1 -24.4 24.1 H 37.1 v 25 H 25.8 V 4.6 H 53.2 z M 37.1 43.1 h 13 c 9.9 0 15.5 -5.3 15.5 -14.5 c 0 -9.2 -5.6 -14.5 -15.4 -14.5 H 37.1 C 37.1 14.1 37.1 43.1 37.1 43.1 z" class="st0"/>
                <path d="M 85 4.6 h 10.8 v 28.9 h 0.3 c 3.2 -6.4 8.7 -9.7 16.9 -9.7 c 11.7 0 18.7 7.8 18.7 19.8 v 34 h -11 V 45.8 c 0 -7.8 -3.9 -12.6 -11.6 -12.6 c -8.1 0 -13.1 5.6 -13.1 14 v 30.4 H 85 L 85 4.6 L 85 4.6 z" class="st0"/>
                <path d="M 139.5 51 c 0 -16.8 9.9 -27.3 25.3 -27.3 c 15.4 0 25.3 10.5 25.3 27.3 c 0 16.8 -9.8 27.3 -25.3 27.3 C 149.2 78.3 139.5 67.8 139.5 51 z M 178.9 51 c 0 -11.5 -5.3 -18.3 -14.1 -18.3 c -8.9 0 -14.1 6.8 -14.1 18.3 c 0 11.5 5.3 18.3 14.1 18.3 C 173.6 69.3 178.9 62.5 178.9 51 z" class="st0"/>
                <path d="M 197.8 24.4 h 10.4 v 9.1 h 0.3 c 3.2 -6.4 8.6 -9.7 16.8 -9.7 c 11.7 0 18.5 7.5 18.5 19.7 v 34.1 h -11 v -32 c 0 -8 -3.7 -12.5 -11.4 -12.5 c -7.8 0 -12.6 5.6 -12.6 13.8 v 30.7 h -10.9 L 197.8 24.4 L 197.8 24.4 z" class="st0"/>
                <path d="M 299.7 62 c -1.5 9.7 -10.9 16.3 -22.9 16.3 c -15.5 0 -25.1 -10.4 -25.1 -27 c 0 -16.7 9.7 -27.5 24.7 -27.5 c 14.7 0 24 10.1 24 26.3 v 3.7 h -37.6 v 0.7 c 0 9.1 5.7 15.1 14.3 15.1 c 6.1 0 10.8 -2.9 12.3 -7.5 L 299.7 62 L 299.7 62 z M 262.7 46.1 h 26.6 c -0.3 -8.2 -5.5 -13.5 -13.1 -13.5 C 268.7 32.6 263.3 38 262.7 46.1 z" class="st0"/>
                <path d="M 343.9 41 v -0.4 l -24 -36.1 h 13.5 l 18 28.3 h 0.4 L 370 4.6 h 12.8 l -24.8 36.5 v 0.3 l 24.3 36.2 h -13.3 l -18.2 -27.8 h -0.4 l -18.4 27.8 h -12.6 L 343.9 41 z" class="st0"/>
            </g>
        </g>
        <g>
            <path d="M 452.1 10.1 l 2.5 0 c 0.7 0 1.3 0 2 0 c 1.2 0 2.6 0.1 4 0.3 c 1.3 0.2 2.3 0.6 3.4 1.1 c 1 0.5 2 1.2 2.8 2 c 0.8 0.8 1.5 1.8 2.1 2.8 c 0.5 1 0.9 2.1 1.1 3.3 c 0.3 1.4 0.3 2.9 0.3 4 c 0 0.7 0 1.3 0 2 l 0 28.3 l 0 2.5 c 0 0.7 0 1.3 0 2 c 0 1.1 -0.1 2.6 -0.3 4 c -0.2 1.3 -0.6 2.3 -1.1 3.4 c -0.5 1 -1.2 2 -2 2.8 c -0.8 0.8 -1.8 1.5 -2.8 2 c -1 0.5 -2.1 0.9 -3.4 1.1 c -1.4 0.2 -2.8 0.3 -4 0.3 c -0.7 0 -1.3 0 -2 0 l -2.5 0 l -28.2 0 c -0.7 0 -1.3 0 -2 0 c -1.2 0 -2.6 -0.1 -4 -0.3 c -1.3 -0.2 -2.4 -0.6 -3.4 -1.1 c -1 -0.5 -2 -1.2 -2.8 -2 c -0.8 -0.8 -1.5 -1.8 -2 -2.8 c -0.5 -1 -0.9 -2.1 -1.1 -3.4 c -0.3 -1.4 -0.3 -2.9 -0.3 -4 c 0 -0.7 0 -1.3 0 -1.9 l 0 -28.3 l 0 -2.4 c 0 -0.7 0 -1.4 0 -2 c 0 -1.1 0.1 -2.6 0.3 -4 c 0.2 -1.3 0.6 -2.4 1.1 -3.4 c 0.5 -1.1 1.2 -2 2.1 -2.8 c 0.8 -0.8 1.8 -1.5 2.8 -2 c 1 -0.5 2.1 -0.9 3.4 -1.1 c 1.4 -0.2 2.8 -0.3 4 -0.3 c 0.7 0 1.3 0 2 0 L 452.1 10.1 M 452.1 3.4 l -28.3 0 c -0.7 0 -1.4 0 -2.2 0 c -1.5 0 -3.2 0.1 -5 0.4 c -1.9 0.3 -3.6 0.9 -5.2 1.7 c -1.7 0.9 -3.2 2 -4.5 3.3 c -1.3 1.3 -2.4 2.8 -3.3 4.5 c -0.8 1.6 -1.4 3.3 -1.7 5.2 c -0.3 1.8 -0.4 3.7 -0.4 5 c 0 0.7 0 1.4 0 2.2 l 0 2.5 l 0 28.3 c 0 0.7 0 1.4 0 2.1 c 0 1.4 0.1 3.2 0.4 5 c 0.3 1.9 0.9 3.6 1.7 5.2 c 0.9 1.7 2 3.2 3.3 4.5 c 1.3 1.3 2.8 2.4 4.5 3.3 c 1.6 0.8 3.3 1.4 5.2 1.7 c 1.8 0.3 3.6 0.4 5 0.4 c 0.7 0 1.4 0 2.1 0 l 28.3 0 l 2.5 0 c 0.7 0 1.4 0 2.1 0 c 1.5 0 3.2 -0.1 5 -0.4 c 1.9 -0.3 3.6 -0.9 5.2 -1.7 c 1.7 -0.9 3.2 -2 4.5 -3.3 c 1.3 -1.3 2.4 -2.9 3.3 -4.5 c 0.8 -1.6 1.4 -3.3 1.7 -5.2 c 0.3 -1.8 0.4 -3.7 0.4 -5 c 0 -0.7 0 -1.4 0 -2.1 l 0 -2.5 l 0 -28.3 c 0 -0.7 0 -1.4 0 -2.2 c 0 -1.4 -0.1 -3.2 -0.4 -5 c -0.3 -1.9 -0.9 -3.6 -1.7 -5.2 c -0.8 -1.7 -1.9 -3.2 -3.3 -4.5 c -1.3 -1.3 -2.9 -2.4 -4.5 -3.3 c -1.6 -0.8 -3.3 -1.4 -5.2 -1.7 c -1.8 -0.3 -3.6 -0.4 -5 -0.5 c -0.7 0 -1.4 0 -2.2 0 L 452.1 3.4 L 452.1 3.4 z" class="st0"/>
            <g>
                <path d="M 433.2 59.5 h -6.6 V 22.8 h 14.6 c 7.9 0 12.7 4.4 12.7 11.4 c 0 4.9 -2.5 8.9 -6.9 10.5 l 8 14.8 h -7.5 l -7.2 -13.8 h -7.1 L 433.2 59.5 L 433.2 59.5 z M 433.2 40.6 h 7.4 c 4.2 0 6.6 -2.3 6.6 -6.3 c 0 -3.9 -2.6 -6.3 -6.7 -6.3 h -7.3 L 433.2 40.6 L 433.2 40.6 z" class="st0"/>
            </g>
        </g>
    </g>
</svg>
