<?xml version="1.0" encoding="UTF-8"?>
<svg width="19px" height="40px" viewBox="0 0 19 40" version="1.1" xmlns="http://www.w3.org/2000/svg" xmlns:xlink="http://www.w3.org/1999/xlink">
    <!-- Generator: Sketch 64 (93537) - https://sketch.com -->
    <title>iphone_se</title>
    <desc>Created with Sketch.</desc>
    <g id="Page-1" stroke="none" stroke-width="1" fill="none" fill-rule="evenodd">
        <g id="iphone_se" fill="#333333" fill-rule="nonzero">
            <path d="M16,0 L3,0 C1.3451972,0.00494220167 0.00494220167,1.3451972 0,3 L0,37 C0.00494220167,38.6548028 1.3451972,39.9950578 3,40 L16,40 C17.6548028,39.9950578 18.9950578,38.6548028 19,37 L19,3 C18.9950578,1.3451972 17.6548028,0.00494220167 16,0 Z M7.25,2.25 L11.75,2.25 C11.8880712,2.25 12,2.36192881 12,2.5 C12,2.63807119 11.8880712,2.75 11.75,2.75 L7.25,2.75 C7.11192881,2.75 7,2.63807119 7,2.5 C7,2.36192881 7.11192881,2.25 7.25,2.25 Z M5.5,2.125 C5.70710678,2.125 5.875,2.29289322 5.875,2.5 C5.875,2.70710678 5.70710678,2.875 5.5,2.875 C5.29289322,2.875 5.125,2.70710678 5.125,2.5 C5.125,2.29289322 5.29289322,2.125 5.5,2.125 L5.5,2.125 Z M9.5,39.25 C8.53350169,39.25 7.75,38.4664983 7.75,37.5 C7.75,36.5335017 8.53350169,35.75 9.5,35.75 C10.4664983,35.75 11.25,36.5335017 11.25,37.5 C11.25,38.4664983 10.4664983,39.25 9.5,39.25 L9.5,39.25 Z M18,35 L1,35 L1,5 L18,5 L18,35 Z" id="Shape"></path>
            <circle id="Oval" cx="9.5" cy="37.5" r="1.125"></circle>
        </g>
    </g>
</svg>