<?xml version="1.0" encoding="UTF-8"?>
<svg width="35px" height="25px" viewBox="0 0 35 25" version="1.1" xmlns="http://www.w3.org/2000/svg" xmlns:xlink="http://www.w3.org/1999/xlink">
    <!-- Generator: Sketch 50.2 (55047) - http://www.bohemiancoding.com/sketch -->
    <title>apple_tv_dark__ern1bz8tkwqe_large</title>
    <desc>Created with Sketch.</desc>
    <defs></defs>
    <g id="Page-1" stroke="none" stroke-width="1" fill="none" fill-rule="evenodd">
        <g id="apple_tv_dark__ern1bz8tkwqe_large" fill="#333333">
            <path d="M29.5,1 C30.7532223,0.992039357 31.8202766,1.90970603 32,3.15 L32,3.25 L33.77,10.25 C33.77,10.41 33.9,10.89 33.94,11.17 C33.98,11.45 34,11.92 34.01,12.04 C34.01,13.6968542 32.6668542,15.04 31.01,15.04 L4,15.04 C2.34314575,15.04 1,13.6968542 1,12.04 C1,11.76 1,11.25 1.06,11.04 C1.12,10.83 1.17,10.45 1.22,10.2 L2.97,3.2 L2.97,3.1 C3.18319574,1.86126084 4.27348482,0.966883075 5.53,1 L29.53,1 L29.5,1 Z M29.53,-3.45494575e-15 L5.53,-3.45494575e-15 C3.77307885,-0.011310294 2.27216829,1.26425109 2,3 L0.28,10 C0.28,10 0.12,10.69 0.09,11 C0.06,11.31 0,12 0,12 C2.705415e-16,14.209139 1.790861,16 4,16 L31,16 C33.209139,16 35,14.209139 35,12 C35,12 35,11.38 34.93,11 C34.86,10.62 34.75,10 34.75,10 L33,3 C32.7476701,1.28172658 31.2766906,0.00631074662 29.54,-3.45494575e-15 L29.53,-3.45494575e-15 Z" id="Shape" fill-rule="nonzero"></path>
            <path d="M0,11.73 L0,21 C2.705415e-16,23.209139 1.790861,25 4,25 L31,25 C33.209139,25 35,23.209139 35,21 L35,11.73 L34,12.73 L34,21 C34,22.6568542 32.6568542,24 31,24 L4,24 C2.34314575,24 1,22.6568542 1,21 L1,12.73 L0,11.73 Z" id="Shape" fill-rule="nonzero"></path>
            <path d="M13.62,6 C13.9552791,5.81847436 14.3288425,5.71908592 14.71,5.71 L14.76,5.71 C14.76,5.91 14.66,6.13 14.38,6.31 C14.0749345,6.48329178 13.7308284,6.57620045 13.38,6.58 L13.25,6.58 C13.18,6.39 13.41,6.16 13.62,6 Z" id="Shape"></path>
            <path d="M16.24,8.46 C16.1104542,8.66231942 15.9442737,8.83867417 15.75,8.98 C15.436686,9.26384993 15.0325698,9.42691437 14.61,9.44 C14.417865,9.43985778 14.2264601,9.41635192 14.04,9.37 C13.8435302,9.32269335 13.6420833,9.2991912 13.44,9.3 C13.2275715,9.30160344 13.0160871,9.3284586 12.81,9.38 C12.6362876,9.42191196 12.4586372,9.44537522 12.28,9.45 C11.8498419,9.43907906 11.4366108,9.28014402 11.11,9 C10.44,8.5 10.05,7.68 10.66,7.14 C11.0950473,6.81579795 11.6278081,6.64997175 12.17,6.67 C12.4261469,6.67649123 12.6808924,6.71001038 12.93,6.77 C13.0679046,6.80262259 13.2084773,6.82270441 13.35,6.83 C13.4847995,6.82143496 13.61862,6.80136188 13.75,6.77 C14.0776054,6.6927201 14.4134296,6.65577944 14.75,6.66 C15.2248838,6.64771376 15.6922599,6.78025326 16.09,7.04 C15.87,7.11 15.35,7.33 15.36,7.7 C15.37,8.07 16.06,8.36 16.27,8.41 L16.32,8.41 L16.24,8.46 Z" id="Shape"></path>
            <path d="M20.31,7.12 L19.31,7.12 L19.31,8.63 C19.31,8.86 19.49,8.95 19.91,8.95 L20.32,8.95 L20.32,9.42 C20.1201339,9.43035176 19.9198661,9.43035176 19.72,9.42 C18.66,9.42 18.23,9.2 18.23,8.66 L18.23,7.12 L17.4,7.12 L17.4,6.65 L18.18,6.65 L18.18,6 L19.3,6 L19.3,6.65 L20.3,6.65 L20.31,7.12 Z" id="Shape"></path>
            <polygon id="Shape" points="23.81 9.43 22.67 9.43 20.7 6.66 21.89 6.66 23.25 8.81 24.61 6.66 25.77 6.66"></polygon>
        </g>
    </g>
</svg>