<?xml version="1.0" encoding="UTF-8"?>
<svg width="196px" height="24px" viewBox="0 0 196 24" version="1.1" xmlns="http://www.w3.org/2000/svg" xmlns:xlink="http://www.w3.org/1999/xlink">
    <!-- Generator: Sketch 64 (93537) - https://sketch.com -->
    <title>Artboard</title>
    <desc>Created with Sketch.</desc>
    <defs>
        <polygon id="path-1" points="0.497014047 0.346310368 9.6395291 0.346310368 9.6395291 8.52173913 0.497014047 8.52173913"></polygon>
        <polygon id="path-3" points="0.196262207 0.423464883 14.228289 0.423464883 14.228289 13.5523839 0.196262207 13.5523839"></polygon>
        <polygon id="path-5" points="0 23.1751318 195.410033 23.1751318 195.410033 0.655452843 0 0.655452843"></polygon>
    </defs>
    <g id="Artboard" stroke="none" stroke-width="1" fill="none" fill-rule="evenodd">
        <g id="Group-36">
            <g id="Group-3" transform="translate(9.832776, 14.653393)">
                <mask id="mask-2" fill="white">
                    <use xlink:href="#path-1"></use>
                </mask>
                <g id="Clip-2"></g>
                <path d="M0.497014047,1.90709967 C0.864759866,2.31024348 1.16629833,2.68323344 1.51372308,3.00771505 C1.72873311,3.20830368 1.9955291,3.38988227 2.27281338,3.48099933 C2.36589699,3.51115318 2.70938863,3.56359465 2.88441204,3.36890569 C2.99191706,3.24960134 2.98798395,3.08309967 2.98732843,3.05097926 C2.98339532,2.87857793 2.89162274,2.75337391 2.85491371,2.70421003 C2.48061271,2.20667157 2.24134849,2.0080495 2.00798395,1.72093244 C1.67563612,1.3132 1.36688696,0.886457525 0.955221405,0.346310368 L9.6395291,0.346310368 L9.6395291,6.59930033 C9.6395291,7.66058462 8.76178997,8.52193579 7.67887358,8.52193579 L0.497014047,8.52193579 L0.497014047,1.90709967 Z" id="Fill-1" fill="#FFFFFF" mask="url(#mask-2)"></path>
            </g>
            <path d="M8.33570301,14.9927545 C7.84537525,15.6089418 7.2770408,16.1654769 6.67920803,16.6807144 C6.45829833,16.8708147 6.23214448,17.0550154 6.00074649,17.2320054 C5.69330836,17.467992 5.37275987,17.6948013 5.11186355,17.9799518 C4.95060602,18.1556308 4.77099398,18.4342261 4.9604388,18.6538247 C5.10071973,18.8170488 5.35702742,18.8531023 5.56220468,18.8308147 C5.74640535,18.8111492 5.9227398,18.7442863 6.08858595,18.663002 C6.54351572,18.4401258 6.93158261,18.109089 7.31440535,17.7819853 C7.75229164,17.4083398 8.1928,17.0353498 8.63134181,16.6630154 C8.7060709,16.5994301 9.0764388,16.2860923 9.0764388,16.2860923 L9.0764388,23.169691 L1.96078662,23.169691 C0.877870234,23.169691 0.000131103679,22.3083398 0.000131103679,21.2470555 L0.000131103679,14.9927545 L8.33570301,14.9927545 Z" id="Fill-4" fill="#FFFFFF"></path>
            <path d="M8.22433043,13.7764401 C8.04537391,13.7515304 7.86641739,13.7318649 7.68811639,13.6984334 C7.31381538,13.629604 6.94475853,13.5338983 6.58881204,13.4027946 C5.92673846,13.1602528 5.29416321,12.8069284 4.81760134,12.2877579 C4.66093244,12.1186341 4.51802943,11.9265672 4.46821003,11.7023799 C4.31547425,11.0173632 5.12569498,10.7708883 5.66387559,10.8331625 C6.15289231,10.8895371 6.61568829,11.0940589 7.01555452,11.3752763 C7.86182876,11.970487 8.39214314,12.8324936 8.89689231,13.7023666 C8.93032375,13.7600522 8.89427023,13.8262595 8.82740736,13.8347813 C8.79004281,13.8387144 8.39542074,13.7993833 8.22433043,13.7764401" id="Fill-6" fill="#FFFFFF"></path>
            <path d="M1.96104883,4.12032642 C0.878132441,4.12032642 0.000393311037,4.98102207 0.000393311037,6.04296187 L0.000393311037,13.7649686 L4.50577124,13.7649686 C4.16555719,13.4994836 3.87319599,13.1881124 3.59460067,12.8144669 C3.14950368,12.2179452 2.96595853,11.4522997 3.30813913,10.7436843 C3.66015251,10.0173699 4.34648027,9.71648696 5.13834649,9.64110234 C6.21339666,9.53818595 7.1416107,9.91510903 7.95314247,10.5712829 C8.33662074,10.8813431 8.66372441,11.2602328 9.07866756,11.6699318 L9.07866756,4.12032642 L1.96104883,4.12032642 Z" id="Fill-8" fill="#FFFFFF"></path>
            <g id="Group-12" transform="translate(5.244147, 0.231988)">
                <mask id="mask-4" fill="white">
                    <use xlink:href="#path-3"></use>
                </mask>
                <g id="Clip-11"></g>
                <path d="M8.27552642,6.55079197 C7.71309164,6.55079197 7.25619532,6.10307291 7.25619532,5.55243746 C7.25619532,5.17682542 7.46989431,4.85365485 7.78257659,4.68256455 C7.80224214,4.89888562 7.80551973,5.11717324 7.78454314,5.33808294 C7.75701137,5.63503278 7.97464348,5.89855117 8.27159331,5.92608294 C8.56592107,5.95230368 8.83140602,5.73663813 8.85893779,5.43968829 C8.88122542,5.20435719 8.87925886,4.97164816 8.86549298,4.74090569 C9.12442274,4.92248428 9.29420201,5.21681204 9.29420201,5.55243746 C9.29420201,6.10307291 8.8379612,6.55079197 8.27552642,6.55079197 M12.2676334,3.8933204 L8.73701137,3.8933204 C8.55936589,3.18863813 8.21587425,2.52787559 7.71243612,1.96019666 C6.87402809,1.01625017 5.69671706,0.45578194 4.48204147,0.424317057 C3.22541271,0.395474247 1.98910502,0.922511037 1.09366689,1.87891237 C0.708877592,2.29057793 0.40733913,2.76255117 0.196262207,3.26926689 L1.12775385,3.26926689 C1.28835585,3.26926689 1.44043612,3.1912602 1.53024214,3.05818997 C1.63446957,2.90348763 1.75180736,2.75534047 1.8816,2.61637057 C2.56661672,1.88481204 3.50925217,1.47249097 4.4545097,1.50395585 C5.37092441,1.526899 6.26505151,1.95429699 6.90483746,2.67667826 C7.22735251,3.04049097 7.4659612,3.45281204 7.6154194,3.8933204 L5.09495117,3.8933204 L5.09495117,9.79364147 C5.32307157,9.64025017 5.65804147,9.49669164 5.87436254,9.41671839 C6.53446957,9.17221003 7.22735251,9.170899 7.78782074,9.64418328 C8.6026301,10.3331331 8.34107826,11.381307 7.84943946,12.1882502 C7.55576722,12.6694007 7.2306301,13.1295746 6.85698462,13.5523839 L14.228289,13.5523839 L14.228289,5.81595585 C14.228289,4.75467157 13.3505498,3.8933204 12.2676334,3.8933204" id="Fill-10" fill="#FFFFFF" mask="url(#mask-4)"></path>
            </g>
            <path d="M10.1569298,13.4473699 C10.0618796,13.2513699 10.1385753,12.791196 10.1543077,12.6699251 C10.1910167,12.4011625 10.2742676,12.1376441 10.4007826,11.8964134 C10.5817057,11.5509552 10.8635786,11.2140187 11.1933043,10.9970421 C11.3499732,10.8934702 11.5440067,10.8062863 11.7367291,10.8344736 C11.9792709,10.8692161 12.1700268,11.0553833 12.1942809,11.2972696 C12.2152575,11.4958916 12.1379064,11.6925472 12.0422007,11.8701926 C11.6744548,12.5466876 11.0300803,13.0304602 10.3981605,13.4827679 C10.3568629,13.5129217 10.3083545,13.5437311 10.2578796,13.5352094 C10.2119933,13.5266876 10.1792174,13.4945672 10.1569298,13.4473699" id="Fill-13" fill="#FFFFFF"></path>
            <path d="M29.3199612,14.3148174 L32.8302622,14.3148174 L31.1082154,8.81108495 L31.0426635,8.81108495 L29.3199612,14.3148174 Z M33.4353057,16.419687 L28.7142622,16.419687 L27.6903425,19.6789244 L24.8027839,19.6789244 L29.4687639,6.24145284 L32.7745431,6.24145284 L37.4490448,19.6789244 L34.4598809,19.6789244 L33.4353057,16.419687 Z" id="Fill-15" fill="#FFFFFF"></path>
            <path d="M45.9640321,14.5478542 C45.9640321,12.7038809 45.0417177,11.5023157 43.6356308,11.5023157 C42.2478983,11.5023157 41.3262395,12.7222355 41.3262395,14.5570314 C41.3262395,16.4010047 42.2478983,17.6019144 43.6356308,17.6019144 C45.0417177,17.6019144 45.9640321,16.4101819 45.9640321,14.5478542 M48.7480187,14.5478542 C48.7480187,17.8070916 47.1465873,19.7998676 44.5762997,19.7998676 C43.0954836,19.7998676 41.950293,19.120095 41.3911358,17.9558943 L41.3354167,17.9558943 L41.3354167,23.0309177 L38.6163264,23.0309177 L38.6163264,9.42628896 L41.2987077,9.42628896 L41.2987077,11.1765231 L41.3544268,11.1765231 C41.8945739,10.0221552 43.0954836,9.30501806 44.5389351,9.30501806 C47.13741,9.30501806 48.7480187,11.2879612 48.7480187,14.5478542" id="Fill-17" fill="#FFFFFF"></path>
            <path d="M57.543109,14.5478542 C57.543109,12.7038809 56.6207946,11.5023157 55.2147077,11.5023157 C53.8269753,11.5023157 52.9053164,12.7222355 52.9053164,14.5570314 C52.9053164,16.4010047 53.8269753,17.6019144 55.2147077,17.6019144 C56.6207946,17.6019144 57.543109,16.4101819 57.543109,14.5478542 M60.3270957,14.5478542 C60.3270957,17.8070916 58.7256642,19.7998676 56.1553766,19.7998676 C54.6745605,19.7998676 53.5293699,19.120095 52.9702127,17.9558943 L52.9144936,17.9558943 L52.9144936,23.0309177 L50.1954033,23.0309177 L50.1954033,9.42628896 L52.8777846,9.42628896 L52.8777846,11.1765231 L52.9335037,11.1765231 C53.4736508,10.0221552 54.6745605,9.30501806 56.118012,9.30501806 C58.716487,9.30501806 60.3270957,11.2879612 60.3270957,14.5478542" id="Fill-19" fill="#FFFFFF"></path>
            <mask id="mask-6" fill="white">
                <use xlink:href="#path-5"></use>
            </mask>
            <g id="Clip-22"></g>
            <polygon id="Fill-21" fill="#FFFFFF" mask="url(#mask-6)" points="61.8488161 19.6785967 64.5672508 19.6785967 64.5672508 5.59871706 61.8488161 5.59871706"></polygon>
            <path d="M68.8028174,13.4954194 L73.2262555,13.4954194 C73.1797137,12.1542288 72.3039411,11.2791117 71.0473124,11.2791117 C69.8083826,11.2791117 68.895901,12.1824161 68.8028174,13.4954194 L68.8028174,13.4954194 Z M75.7683559,16.5494796 C75.470095,18.5337338 73.6176,19.8552589 71.121386,19.8552589 C68.0017739,19.8552589 66.0929043,17.8533057 66.0929043,14.5940682 C66.0929043,11.3348308 68.0109512,9.24897124 71.0191251,9.24897124 C73.9709244,9.24897124 75.8522622,11.2227371 75.8522622,14.3430047 L75.8522622,15.1807572 L68.7746301,15.1807572 L68.7746301,15.3485699 C68.7746301,16.829386 69.734309,17.8251184 71.1679278,17.8251184 C72.192503,17.8251184 73.0027237,17.3413458 73.2636201,16.5494796 L75.7683559,16.5494796 Z" id="Fill-23" fill="#FFFFFF" mask="url(#mask-6)"></path>
            <path d="M83.0059344,13.0485525 L86.4421619,13.0485525 C88.388396,13.0485525 89.5342421,12.0049672 89.5342421,10.2081913 C89.5342421,8.42911438 88.3510314,7.37766288 86.3956201,7.37766288 L83.0059344,7.37766288 L83.0059344,13.0485525 Z M83.0059344,19.6784656 L81.7394729,19.6784656 L81.7394729,6.24099398 L86.5444227,6.24099398 C89.1704294,6.24099398 90.8472455,7.7775291 90.8472455,10.1708268 C90.8472455,12.0705191 89.7662957,13.5041378 87.9695197,13.9702114 L91.2195799,19.6784656 L89.7387639,19.6784656 L86.6473391,14.1753886 L86.4421619,14.1753886 L83.0059344,14.1753886 L83.0059344,19.6784656 Z" id="Fill-24" fill="#FFFFFF" mask="url(#mask-6)"></path>
            <path d="M93.4673525,13.9608375 L99.7072321,13.9608375 C99.6882221,11.9680615 98.4591251,10.6268709 96.6433391,10.6268709 C94.8459077,10.6268709 93.5794462,11.9680615 93.4673525,13.9608375 L93.4673525,13.9608375 Z M100.8616,16.8385632 C100.563339,18.5520883 98.9153659,19.7910181 96.7357672,19.7910181 C93.9609579,19.7910181 92.1923692,17.8441284 92.1923692,14.6871518 C92.1923692,11.5767171 93.9609579,9.53739933 96.6616936,9.53739933 C99.2975331,9.53739933 100.992048,11.4469244 100.992048,14.426911 L100.992048,14.9664027 L93.4673525,14.9664027 L93.4673525,15.0319545 C93.4673525,17.3046368 94.7711786,18.700891 96.7639545,18.700891 C98.2729579,18.700891 99.3440749,17.937212 99.6416803,16.8385632 L100.8616,16.8385632 Z" id="Fill-25" fill="#FFFFFF" mask="url(#mask-6)"></path>
            <polygon id="Fill-26" fill="#FFFFFF" mask="url(#mask-6)" points="112.208492 19.6786622 110.913843 19.6786622 108.39993 11.3253913 108.371743 11.3253913 105.85783 19.6786622 104.563181 19.6786622 101.704466 9.64923077 102.94274 9.64923077 105.215422 18.2817525 105.242954 18.2817525 107.757522 9.64923077 109.004974 9.64923077 111.52872 18.2817525 111.556907 18.2817525 113.829589 9.64923077 115.067208 9.64923077"></polygon>
            <path d="M122.464405,15.9075304 L122.464405,14.7990488 L119.530961,15.0035706 C117.845623,15.1156642 116.951496,15.7672495 116.951496,16.8940856 C116.951496,17.9743799 117.901342,18.7098716 119.298252,18.7098716 C121.095683,18.7098716 122.464405,17.4899518 122.464405,15.9075304 M115.694867,16.8849084 C115.694867,15.1713833 116.979683,14.1749953 119.382158,14.0078381 L122.464405,13.8026609 L122.464405,12.9458983 C122.464405,11.4840923 121.542746,10.636507 119.922305,10.636507 C118.525395,10.636507 117.547362,11.3536441 117.32383,12.5453766 L116.141275,12.5453766 C116.244191,10.7859652 117.827268,9.53720268 119.931482,9.53720268 C122.231696,9.53720268 123.693502,10.8226742 123.693502,12.8436375 L123.693502,19.6787278 L122.520124,19.6787278 L122.520124,17.7600254 L122.492593,17.7600254 C121.952445,18.9799452 120.5929,19.7908214 119.056365,19.7908214 C117.053757,19.7908214 115.694867,18.6174435 115.694867,16.8849084" id="Fill-27" fill="#FFFFFF" mask="url(#mask-6)"></path>
            <path d="M125.848912,9.64936187 L127.003936,9.64936187 L127.003936,11.4277833 L127.040645,11.4277833 C127.385447,10.2360508 128.335294,9.53726823 129.582745,9.53726823 C129.909193,9.53726823 130.206799,9.59364281 130.365434,9.6395291 L130.365434,10.8601043 C130.197621,10.7853753 129.844297,10.7204789 129.415588,10.7204789 C127.991146,10.7204789 127.078009,11.8381378 127.078009,13.4585793 L127.078009,19.6787933 L125.848912,19.6787933 L125.848912,9.64936187 Z" id="Fill-28" fill="#FFFFFF" mask="url(#mask-6)"></path>
            <path d="M131.927207,14.6592268 C131.927207,17.0800562 133.24021,18.6821431 135.158912,18.6821431 C137.086136,18.6821431 138.41815,17.0525244 138.41815,14.6592268 C138.41815,12.2849391 137.086136,10.6363104 135.158912,10.6363104 C133.24021,10.6363104 131.927207,12.2475746 131.927207,14.6592268 M130.670578,14.6592268 C130.670578,11.5953338 132.439167,9.53766154 134.935381,9.53766154 C136.555822,9.53766154 137.840638,10.4127786 138.380785,11.7074274 L138.408973,11.7074274 L138.408973,5.65437057 L139.647247,5.65437057 L139.647247,19.6785311 L138.473869,19.6785311 L138.473869,17.5461298 L138.445682,17.5461298 C137.86817,18.9063304 136.592531,19.7906247 134.963568,19.7906247 C132.448999,19.7906247 130.670578,17.7231197 130.670578,14.6592268" id="Fill-29" fill="#FFFFFF" mask="url(#mask-6)"></path>
            <path d="M145.341604,9.53733378 C147.371744,9.53733378 148.842728,10.7487318 148.944989,12.4714341 L147.762433,12.4714341 C147.641818,11.3347652 146.720159,10.5809191 145.304239,10.5809191 C143.963049,10.5809191 142.957484,11.2698689 142.957484,12.2846114 C142.957484,13.1040094 143.55335,13.5792602 144.829644,13.8952201 L146.365524,14.26821 C148.37731,14.7709926 149.140989,15.497307 149.140989,16.922404 C149.140989,18.6175746 147.529724,19.7909525 145.276052,19.7909525 C143.125296,19.7909525 141.579584,18.5612 141.439959,16.8568522 L142.68741,16.8568522 C142.836868,18.0026983 143.832601,18.7565445 145.350781,18.7565445 C146.849952,18.7565445 147.893537,18.0675946 147.893537,17.0063104 C147.893537,16.1587251 147.380266,15.693307 146.021377,15.3576816 L144.326206,14.9296281 C142.594326,14.4917418 141.737564,13.6723438 141.737564,12.3501632 C141.737564,10.6923572 143.274099,9.53733378 145.341604,9.53733378" id="Fill-30" fill="#FFFFFF" mask="url(#mask-6)"></path>
            <path d="M155.85743,16.0284736 C155.997711,17.6390823 157.515236,18.7383866 159.61945,18.7383866 C161.631892,18.7383866 163.074688,17.6390823 163.074688,16.1307344 C163.074688,14.8734502 162.208092,14.1287813 160.215316,13.6259987 L158.548989,13.1972896 C156.062607,12.5640589 154.954126,11.5112963 154.954126,9.74205217 C154.954126,7.57294181 156.909537,6.02657391 159.555209,6.02657391 C162.171383,6.02657391 164.090086,7.57294181 164.164159,9.70534314 L162.88852,9.70534314 C162.767249,8.18716254 161.426059,7.18159732 159.517189,7.18159732 C157.654862,7.18159732 156.276962,8.21534983 156.276962,9.69616589 C156.276962,10.8511893 157.114714,11.5303064 159.089136,12.033089 L160.541765,12.4060789 C163.2425,13.0858515 164.378514,14.119604 164.378514,15.9904535 C164.378514,18.3470421 162.478821,19.89341 159.508012,19.89341 C156.695838,19.89341 154.722072,18.3372094 154.582447,16.0284736 L155.85743,16.0284736 Z" id="Fill-31" fill="#FFFFFF" mask="url(#mask-6)"></path>
            <path d="M168.005038,7.24688696 L168.005038,9.64936187 L169.987981,9.64936187 L169.987981,10.6831144 L168.005038,10.6831144 L168.005038,17.1642247 C168.005038,18.20781 168.414737,18.6542181 169.346229,18.6542181 C169.476021,18.6542181 169.960449,18.6260308 170.035179,18.617509 L170.035179,19.6689605 C169.90473,19.7069806 169.364583,19.7345124 169.104342,19.7345124 C167.445881,19.7345124 166.775941,19.0173753 166.775941,17.2107666 L166.775941,10.6831144 L165.342322,10.6831144 L165.342322,9.64936187 L166.775941,9.64936187 L166.775941,7.24688696 L168.005038,7.24688696 Z" id="Fill-32" fill="#FFFFFF" mask="url(#mask-6)"></path>
            <path d="M178.823648,14.6592268 C178.823648,12.154491 177.557187,10.6363104 175.517869,10.6363104 C173.487728,10.6363104 172.221267,12.1636682 172.221267,14.6592268 C172.221267,17.1639625 173.487728,18.6821431 175.517869,18.6821431 C177.557187,18.6821431 178.823648,17.1639625 178.823648,14.6592268 M170.964638,14.6592268 C170.964638,11.5304375 172.761414,9.53766154 175.517869,9.53766154 C178.274324,9.53766154 180.080932,11.5304375 180.080932,14.6592268 C180.080932,17.7880161 178.274324,19.7906247 175.517869,19.7906247 C172.761414,19.7906247 170.964638,17.7880161 170.964638,14.6592268" id="Fill-33" fill="#FFFFFF" mask="url(#mask-6)"></path>
            <path d="M181.78882,9.64936187 L182.943843,9.64936187 L182.943843,11.4277833 L182.980553,11.4277833 C183.325355,10.2360508 184.275201,9.53726823 185.522653,9.53726823 C185.849101,9.53726823 186.146706,9.59364281 186.305342,9.6395291 L186.305342,10.8601043 C186.137529,10.7853753 185.784205,10.7204789 185.355496,10.7204789 C183.931054,10.7204789 183.017917,11.8381378 183.017917,13.4585793 L183.017917,19.6787933 L181.78882,19.6787933 L181.78882,9.64936187 Z" id="Fill-34" fill="#FFFFFF" mask="url(#mask-6)"></path>
            <path d="M187.885666,13.9608375 L194.125545,13.9608375 C194.106535,11.9680615 192.877438,10.6268709 191.061652,10.6268709 C189.264221,10.6268709 187.997759,11.9680615 187.885666,13.9608375 L187.885666,13.9608375 Z M195.279913,16.8385632 C194.981652,18.5520883 193.333679,19.7910181 191.15408,19.7910181 C188.379271,19.7910181 186.610682,17.8441284 186.610682,14.6871518 C186.610682,11.5767171 188.379271,9.53739933 191.080007,9.53739933 C193.715846,9.53739933 195.410361,11.4469244 195.410361,14.426911 L195.410361,14.9664027 L187.885666,14.9664027 L187.885666,15.0319545 C187.885666,17.3046368 189.189492,18.700891 191.182268,18.700891 C192.691271,18.700891 193.762388,17.937212 194.059993,16.8385632 L195.279913,16.8385632 Z" id="Fill-35" fill="#FFFFFF" mask="url(#mask-6)"></path>
        </g>
    </g>
</svg>